<mxfile host="app.diagrams.net" modified="2022-12-18T11:47:21.477Z" agent="5.0 (Windows NT 10.0; Win64; x64) AppleWebKit/537.36 (KHTML, like Gecko) Chrome/108.0.0.0 Safari/537.36" etag="v1tso4Dz2aQa6hN_mAgi" version="20.7.4" type="github">
  <diagram id="kgpKYQtTHZ0yAKxKKP6v" name="Page-1">
    <mxGraphModel dx="2436" dy="1746" grid="1" gridSize="10" guides="1" tooltips="1" connect="1" arrows="1" fold="1" page="1" pageScale="1" pageWidth="850" pageHeight="1100" math="0" shadow="0">
      <root>
        <mxCell id="0" />
        <mxCell id="1" parent="0" />
        <mxCell id="dLwLNs0NbHW0nQvxP7zs-42" value="Forgot password popup" style="shape=umlLifeline;perimeter=lifelinePerimeter;container=1;collapsible=0;recursiveResize=0;rounded=0;shadow=0;strokeWidth=1;" vertex="1" parent="1">
          <mxGeometry x="170" y="-40" width="145" height="800" as="geometry" />
        </mxCell>
        <mxCell id="dLwLNs0NbHW0nQvxP7zs-43" value="" style="points=[];perimeter=orthogonalPerimeter;rounded=0;shadow=0;strokeWidth=1;" vertex="1" parent="dLwLNs0NbHW0nQvxP7zs-42">
          <mxGeometry x="67.5" y="170" width="10" height="630" as="geometry" />
        </mxCell>
        <mxCell id="dLwLNs0NbHW0nQvxP7zs-45" value="Forgot password Controller" style="shape=umlLifeline;perimeter=lifelinePerimeter;container=1;collapsible=0;recursiveResize=0;rounded=0;shadow=0;strokeWidth=1;" vertex="1" parent="1">
          <mxGeometry x="400" y="-40" width="150" height="800" as="geometry" />
        </mxCell>
        <mxCell id="dLwLNs0NbHW0nQvxP7zs-46" value="" style="points=[];perimeter=orthogonalPerimeter;rounded=0;shadow=0;strokeWidth=1;" vertex="1" parent="dLwLNs0NbHW0nQvxP7zs-45">
          <mxGeometry x="70" y="170" width="10" height="630" as="geometry" />
        </mxCell>
        <mxCell id="dLwLNs0NbHW0nQvxP7zs-47" value="return result" style="verticalAlign=bottom;endArrow=open;dashed=1;endSize=8;exitX=0;exitY=0.95;shadow=0;strokeWidth=1;" edge="1" parent="dLwLNs0NbHW0nQvxP7zs-45">
          <mxGeometry relative="1" as="geometry">
            <mxPoint x="80" y="450" as="targetPoint" />
            <mxPoint x="302.5" y="450" as="sourcePoint" />
          </mxGeometry>
        </mxCell>
        <mxCell id="dLwLNs0NbHW0nQvxP7zs-94" value="" style="edgeStyle=orthogonalEdgeStyle;rounded=0;orthogonalLoop=1;jettySize=auto;html=1;" edge="1" parent="dLwLNs0NbHW0nQvxP7zs-45">
          <mxGeometry relative="1" as="geometry">
            <mxPoint x="80" y="610" as="sourcePoint" />
            <mxPoint x="304.94" y="610" as="targetPoint" />
            <Array as="points">
              <mxPoint x="79.94" y="610" />
              <mxPoint x="304.94" y="610" />
            </Array>
          </mxGeometry>
        </mxCell>
        <mxCell id="dLwLNs0NbHW0nQvxP7zs-48" value="" style="edgeStyle=orthogonalEdgeStyle;rounded=0;orthogonalLoop=1;jettySize=auto;html=1;" edge="1" parent="1" source="dLwLNs0NbHW0nQvxP7zs-49">
          <mxGeometry relative="1" as="geometry">
            <Array as="points">
              <mxPoint x="927" y="270" />
            </Array>
            <mxPoint x="927" y="270" as="targetPoint" />
          </mxGeometry>
        </mxCell>
        <mxCell id="dLwLNs0NbHW0nQvxP7zs-49" value="Forgot password Service" style="shape=umlLifeline;perimeter=lifelinePerimeter;container=1;collapsible=0;recursiveResize=0;rounded=0;shadow=0;strokeWidth=1;" vertex="1" parent="1">
          <mxGeometry x="630" y="-40" width="170" height="800" as="geometry" />
        </mxCell>
        <mxCell id="dLwLNs0NbHW0nQvxP7zs-50" value="" style="points=[];perimeter=orthogonalPerimeter;rounded=0;shadow=0;strokeWidth=1;" vertex="1" parent="dLwLNs0NbHW0nQvxP7zs-49">
          <mxGeometry x="80" y="170" width="10" height="630" as="geometry" />
        </mxCell>
        <mxCell id="dLwLNs0NbHW0nQvxP7zs-51" value="return result" style="verticalAlign=bottom;endArrow=open;dashed=1;endSize=8;exitX=0;exitY=0.95;shadow=0;strokeWidth=1;" edge="1" parent="dLwLNs0NbHW0nQvxP7zs-49">
          <mxGeometry relative="1" as="geometry">
            <mxPoint x="90" y="410" as="targetPoint" />
            <mxPoint x="302.5" y="410" as="sourcePoint" />
          </mxGeometry>
        </mxCell>
        <mxCell id="dLwLNs0NbHW0nQvxP7zs-52" value="" style="edgeStyle=elbowEdgeStyle;elbow=horizontal;endArrow=classic;html=1;curved=0;rounded=0;endSize=8;startSize=8;exitX=1.24;exitY=0.043;exitDx=0;exitDy=0;exitPerimeter=0;entryX=0.517;entryY=0.288;entryDx=0;entryDy=0;entryPerimeter=0;" edge="1" parent="dLwLNs0NbHW0nQvxP7zs-49" source="dLwLNs0NbHW0nQvxP7zs-50" target="dLwLNs0NbHW0nQvxP7zs-49">
          <mxGeometry x="0.3846" y="-155" width="50" height="50" relative="1" as="geometry">
            <mxPoint x="80" y="220" as="sourcePoint" />
            <mxPoint x="110" y="230" as="targetPoint" />
            <Array as="points">
              <mxPoint x="120" y="230" />
              <mxPoint x="120" y="170" />
              <mxPoint x="120" y="180" />
              <mxPoint x="120" y="200" />
            </Array>
            <mxPoint x="150" y="115" as="offset" />
          </mxGeometry>
        </mxCell>
        <mxCell id="dLwLNs0NbHW0nQvxP7zs-53" value="Valid" style="text;html=1;strokeColor=none;fillColor=none;align=center;verticalAlign=middle;whiteSpace=wrap;rounded=0;" vertex="1" parent="dLwLNs0NbHW0nQvxP7zs-49">
          <mxGeometry x="110" y="200" width="60" height="30" as="geometry" />
        </mxCell>
        <mxCell id="dLwLNs0NbHW0nQvxP7zs-85" value="" style="edgeStyle=orthogonalEdgeStyle;rounded=0;orthogonalLoop=1;jettySize=auto;html=1;entryX=-0.341;entryY=0.142;entryDx=0;entryDy=0;entryPerimeter=0;" edge="1" parent="dLwLNs0NbHW0nQvxP7zs-49" target="dLwLNs0NbHW0nQvxP7zs-50">
          <mxGeometry relative="1" as="geometry">
            <Array as="points" />
            <mxPoint x="-149.99647058823513" y="260" as="sourcePoint" />
            <mxPoint x="62.67999999999961" y="260" as="targetPoint" />
          </mxGeometry>
        </mxCell>
        <mxCell id="dLwLNs0NbHW0nQvxP7zs-55" value="Repo" style="shape=umlLifeline;perimeter=lifelinePerimeter;container=1;collapsible=0;recursiveResize=0;rounded=0;shadow=0;strokeWidth=1;" vertex="1" parent="1">
          <mxGeometry x="860" y="-40" width="150" height="800" as="geometry" />
        </mxCell>
        <mxCell id="dLwLNs0NbHW0nQvxP7zs-56" value="" style="points=[];perimeter=orthogonalPerimeter;rounded=0;shadow=0;strokeWidth=1;" vertex="1" parent="dLwLNs0NbHW0nQvxP7zs-55">
          <mxGeometry x="70" y="170" width="10" height="630" as="geometry" />
        </mxCell>
        <mxCell id="dLwLNs0NbHW0nQvxP7zs-57" value="return result" style="verticalAlign=bottom;endArrow=open;dashed=1;endSize=8;exitX=0;exitY=0.95;shadow=0;strokeWidth=1;" edge="1" parent="dLwLNs0NbHW0nQvxP7zs-55">
          <mxGeometry relative="1" as="geometry">
            <mxPoint x="77.5" y="370" as="targetPoint" />
            <mxPoint x="300" y="370" as="sourcePoint" />
          </mxGeometry>
        </mxCell>
        <mxCell id="dLwLNs0NbHW0nQvxP7zs-58" value="Database" style="shape=umlLifeline;perimeter=lifelinePerimeter;container=1;collapsible=0;recursiveResize=0;rounded=0;shadow=0;strokeWidth=1;" vertex="1" parent="1">
          <mxGeometry x="1090" y="-40" width="150" height="800" as="geometry" />
        </mxCell>
        <mxCell id="dLwLNs0NbHW0nQvxP7zs-59" value="" style="points=[];perimeter=orthogonalPerimeter;rounded=0;shadow=0;strokeWidth=1;" vertex="1" parent="dLwLNs0NbHW0nQvxP7zs-58">
          <mxGeometry x="70" y="170" width="10" height="630" as="geometry" />
        </mxCell>
        <mxCell id="dLwLNs0NbHW0nQvxP7zs-61" value="&lt;span style=&quot;color: rgb(0, 0, 0); font-family: Helvetica; font-size: 11px; font-style: normal; font-variant-ligatures: normal; font-variant-caps: normal; font-weight: 400; letter-spacing: normal; orphans: 2; text-align: center; text-indent: 0px; text-transform: none; widows: 2; word-spacing: 0px; -webkit-text-stroke-width: 0px; background-color: rgb(255, 255, 255); text-decoration-thickness: initial; text-decoration-style: initial; text-decoration-color: initial; float: none; display: inline !important;&quot;&gt;Execute query&lt;/span&gt;" style="text;whiteSpace=wrap;html=1;" vertex="1" parent="1">
          <mxGeometry x="1000" y="270" width="100" height="40" as="geometry" />
        </mxCell>
        <mxCell id="dLwLNs0NbHW0nQvxP7zs-62" value="" style="endArrow=none;dashed=1;html=1;rounded=0;" edge="1" parent="1">
          <mxGeometry width="50" height="50" relative="1" as="geometry">
            <mxPoint x="-110" y="760" as="sourcePoint" />
            <mxPoint x="-110" y="-10" as="targetPoint" />
            <Array as="points">
              <mxPoint x="-110" y="180" />
            </Array>
          </mxGeometry>
        </mxCell>
        <mxCell id="dLwLNs0NbHW0nQvxP7zs-63" value="Users" style="shape=umlActor;verticalLabelPosition=bottom;verticalAlign=top;html=1;outlineConnect=0;" vertex="1" parent="1">
          <mxGeometry x="-120" y="-100" width="30" height="60" as="geometry" />
        </mxCell>
        <mxCell id="dLwLNs0NbHW0nQvxP7zs-64" value="" style="points=[];perimeter=orthogonalPerimeter;rounded=0;shadow=0;strokeWidth=1;" vertex="1" parent="1">
          <mxGeometry y="100" width="10" height="660" as="geometry" />
        </mxCell>
        <mxCell id="dLwLNs0NbHW0nQvxP7zs-65" value="" style="endArrow=none;dashed=1;html=1;rounded=0;exitX=0.92;exitY=-0.011;exitDx=0;exitDy=0;exitPerimeter=0;" edge="1" parent="1" source="dLwLNs0NbHW0nQvxP7zs-64">
          <mxGeometry width="50" height="50" relative="1" as="geometry">
            <mxPoint x="430" y="-10" as="sourcePoint" />
            <mxPoint x="10" as="targetPoint" />
            <Array as="points">
              <mxPoint x="10" y="70" />
            </Array>
          </mxGeometry>
        </mxCell>
        <mxCell id="dLwLNs0NbHW0nQvxP7zs-66" value="Forgot page" style="rounded=0;whiteSpace=wrap;html=1;" vertex="1" parent="1">
          <mxGeometry x="-50" y="-40" width="120" height="40" as="geometry" />
        </mxCell>
        <mxCell id="dLwLNs0NbHW0nQvxP7zs-67" value="" style="endArrow=classic;html=1;rounded=0;entryX=-0.2;entryY=0.036;entryDx=0;entryDy=0;entryPerimeter=0;" edge="1" parent="1" target="dLwLNs0NbHW0nQvxP7zs-64">
          <mxGeometry width="50" height="50" relative="1" as="geometry">
            <mxPoint x="-110" y="124" as="sourcePoint" />
            <mxPoint x="480" y="140" as="targetPoint" />
          </mxGeometry>
        </mxCell>
        <mxCell id="dLwLNs0NbHW0nQvxP7zs-68" value="&lt;br&gt;Login" style="text;html=1;strokeColor=none;fillColor=none;align=center;verticalAlign=middle;whiteSpace=wrap;rounded=0;" vertex="1" parent="1">
          <mxGeometry x="-90" y="80" width="60" height="30" as="geometry" />
        </mxCell>
        <mxCell id="dLwLNs0NbHW0nQvxP7zs-69" value="" style="edgeStyle=orthogonalEdgeStyle;rounded=0;orthogonalLoop=1;jettySize=auto;html=1;" edge="1" parent="1">
          <mxGeometry relative="1" as="geometry">
            <mxPoint x="250" y="180" as="sourcePoint" />
            <mxPoint x="470" y="180" as="targetPoint" />
          </mxGeometry>
        </mxCell>
        <mxCell id="dLwLNs0NbHW0nQvxP7zs-70" value="&lt;span style=&quot;color: rgb(0, 0, 0); font-family: Helvetica; font-size: 11px; font-style: normal; font-variant-ligatures: normal; font-variant-caps: normal; font-weight: 400; letter-spacing: normal; orphans: 2; text-align: center; text-indent: 0px; text-transform: none; widows: 2; word-spacing: 0px; -webkit-text-stroke-width: 0px; background-color: rgb(255, 255, 255); text-decoration-thickness: initial; text-decoration-style: initial; text-decoration-color: initial; float: none; display: inline !important;&quot;&gt;Send request&lt;/span&gt;" style="text;whiteSpace=wrap;html=1;" vertex="1" parent="1">
          <mxGeometry x="315" y="150" width="100" height="40" as="geometry" />
        </mxCell>
        <mxCell id="dLwLNs0NbHW0nQvxP7zs-71" value="return result" style="verticalAlign=bottom;endArrow=open;dashed=1;endSize=8;shadow=0;strokeWidth=1;" edge="1" parent="1">
          <mxGeometry relative="1" as="geometry">
            <mxPoint x="250" y="440" as="targetPoint" />
            <mxPoint x="470" y="440" as="sourcePoint" />
          </mxGeometry>
        </mxCell>
        <mxCell id="dLwLNs0NbHW0nQvxP7zs-72" value="return result" style="verticalAlign=bottom;endArrow=open;dashed=1;endSize=8;exitX=0;exitY=0.95;shadow=0;strokeWidth=1;" edge="1" parent="1">
          <mxGeometry relative="1" as="geometry">
            <mxPoint x="10" y="470" as="targetPoint" />
            <mxPoint x="232.5" y="470" as="sourcePoint" />
          </mxGeometry>
        </mxCell>
        <mxCell id="dLwLNs0NbHW0nQvxP7zs-74" value="" style="edgeStyle=orthogonalEdgeStyle;rounded=0;orthogonalLoop=1;jettySize=auto;html=1;" edge="1" parent="1">
          <mxGeometry relative="1" as="geometry">
            <mxPoint x="10" y="150" as="sourcePoint" />
            <mxPoint x="237.5" y="150" as="targetPoint" />
          </mxGeometry>
        </mxCell>
        <mxCell id="dLwLNs0NbHW0nQvxP7zs-75" value="Input infor&lt;br&gt;(email)" style="text;html=1;strokeColor=none;fillColor=none;align=center;verticalAlign=middle;whiteSpace=wrap;rounded=0;" vertex="1" parent="1">
          <mxGeometry x="20" y="110" width="200" height="30" as="geometry" />
        </mxCell>
        <mxCell id="dLwLNs0NbHW0nQvxP7zs-76" value="Change Status" style="shape=umlFrame;whiteSpace=wrap;html=1;" vertex="1" parent="1">
          <mxGeometry x="-180" y="250" width="890" height="110" as="geometry" />
        </mxCell>
        <mxCell id="dLwLNs0NbHW0nQvxP7zs-77" value="" style="endArrow=none;dashed=1;html=1;dashPattern=1 3;strokeWidth=2;rounded=0;entryX=0;entryY=0.636;entryDx=0;entryDy=0;entryPerimeter=0;" edge="1" parent="1" target="dLwLNs0NbHW0nQvxP7zs-76">
          <mxGeometry width="50" height="50" relative="1" as="geometry">
            <mxPoint x="710" y="320" as="sourcePoint" />
            <mxPoint x="400" y="190" as="targetPoint" />
            <Array as="points">
              <mxPoint x="700" y="320" />
              <mxPoint x="210" y="320" />
              <mxPoint x="80" y="320" />
            </Array>
          </mxGeometry>
        </mxCell>
        <mxCell id="dLwLNs0NbHW0nQvxP7zs-78" value="return result" style="verticalAlign=bottom;endArrow=open;dashed=1;endSize=8;exitX=0;exitY=0.95;shadow=0;strokeWidth=1;" edge="1" parent="1">
          <mxGeometry relative="1" as="geometry">
            <mxPoint x="10" y="470" as="targetPoint" />
            <mxPoint x="232.5" y="470" as="sourcePoint" />
          </mxGeometry>
        </mxCell>
        <mxCell id="dLwLNs0NbHW0nQvxP7zs-79" value="Render failed" style="verticalAlign=bottom;endArrow=open;dashed=1;endSize=8;exitX=0;exitY=0.95;shadow=0;strokeWidth=1;" edge="1" parent="1">
          <mxGeometry relative="1" as="geometry">
            <mxPoint x="10" y="290" as="targetPoint" />
            <mxPoint x="710" y="290" as="sourcePoint" />
          </mxGeometry>
        </mxCell>
        <mxCell id="dLwLNs0NbHW0nQvxP7zs-80" value="Render success" style="verticalAlign=bottom;endArrow=open;dashed=1;endSize=8;exitX=0;exitY=0.95;shadow=0;strokeWidth=1;" edge="1" parent="1">
          <mxGeometry relative="1" as="geometry">
            <mxPoint x="10" y="350" as="targetPoint" />
            <mxPoint x="710" y="350" as="sourcePoint" />
          </mxGeometry>
        </mxCell>
        <mxCell id="dLwLNs0NbHW0nQvxP7zs-81" value="Success" style="text;html=1;strokeColor=none;fillColor=none;align=center;verticalAlign=middle;whiteSpace=wrap;rounded=0;" vertex="1" parent="1">
          <mxGeometry x="-170" y="320" width="60" height="30" as="geometry" />
        </mxCell>
        <mxCell id="dLwLNs0NbHW0nQvxP7zs-82" value="Failed" style="text;html=1;strokeColor=none;fillColor=none;align=center;verticalAlign=middle;whiteSpace=wrap;rounded=0;" vertex="1" parent="1">
          <mxGeometry x="-170" y="280" width="60" height="30" as="geometry" />
        </mxCell>
        <mxCell id="dLwLNs0NbHW0nQvxP7zs-83" value="" style="endArrow=classic;html=1;rounded=0;" edge="1" parent="1">
          <mxGeometry width="50" height="50" relative="1" as="geometry">
            <mxPoint x="940" y="300" as="sourcePoint" />
            <mxPoint x="1160" y="300" as="targetPoint" />
            <Array as="points" />
          </mxGeometry>
        </mxCell>
        <mxCell id="dLwLNs0NbHW0nQvxP7zs-73" value="Process request" style="text;html=1;strokeColor=none;fillColor=none;align=center;verticalAlign=middle;whiteSpace=wrap;rounded=0;" vertex="1" parent="1">
          <mxGeometry x="780" y="240" width="90" height="30" as="geometry" />
        </mxCell>
        <mxCell id="dLwLNs0NbHW0nQvxP7zs-86" value="forward()" style="text;html=1;strokeColor=none;fillColor=none;align=center;verticalAlign=middle;whiteSpace=wrap;rounded=0;" vertex="1" parent="1">
          <mxGeometry x="550" y="190" width="60" height="30" as="geometry" />
        </mxCell>
        <mxCell id="dLwLNs0NbHW0nQvxP7zs-87" value="" style="edgeStyle=orthogonalEdgeStyle;rounded=0;orthogonalLoop=1;jettySize=auto;html=1;" edge="1" parent="1">
          <mxGeometry relative="1" as="geometry">
            <mxPoint x="10" y="530" as="sourcePoint" />
            <mxPoint x="237.5" y="530" as="targetPoint" />
          </mxGeometry>
        </mxCell>
        <mxCell id="dLwLNs0NbHW0nQvxP7zs-88" value="Input infor&lt;br&gt;(new password, re password)" style="text;html=1;strokeColor=none;fillColor=none;align=center;verticalAlign=middle;whiteSpace=wrap;rounded=0;" vertex="1" parent="1">
          <mxGeometry x="20" y="500" width="200" height="30" as="geometry" />
        </mxCell>
        <mxCell id="dLwLNs0NbHW0nQvxP7zs-89" value="" style="edgeStyle=orthogonalEdgeStyle;rounded=0;orthogonalLoop=1;jettySize=auto;html=1;" edge="1" parent="1">
          <mxGeometry relative="1" as="geometry">
            <mxPoint x="250" y="560" as="sourcePoint" />
            <mxPoint x="470" y="560" as="targetPoint" />
          </mxGeometry>
        </mxCell>
        <mxCell id="dLwLNs0NbHW0nQvxP7zs-90" value="&lt;span style=&quot;color: rgb(0, 0, 0); font-family: Helvetica; font-size: 11px; font-style: normal; font-variant-ligatures: normal; font-variant-caps: normal; font-weight: 400; letter-spacing: normal; orphans: 2; text-align: center; text-indent: 0px; text-transform: none; widows: 2; word-spacing: 0px; -webkit-text-stroke-width: 0px; background-color: rgb(255, 255, 255); text-decoration-thickness: initial; text-decoration-style: initial; text-decoration-color: initial; float: none; display: inline !important;&quot;&gt;Send request&lt;/span&gt;" style="text;whiteSpace=wrap;html=1;" vertex="1" parent="1">
          <mxGeometry x="315" y="530" width="100" height="40" as="geometry" />
        </mxCell>
        <mxCell id="dLwLNs0NbHW0nQvxP7zs-95" value="forward()" style="text;html=1;strokeColor=none;fillColor=none;align=center;verticalAlign=middle;whiteSpace=wrap;rounded=0;" vertex="1" parent="1">
          <mxGeometry x="560" y="540" width="60" height="30" as="geometry" />
        </mxCell>
        <mxCell id="dLwLNs0NbHW0nQvxP7zs-97" value="Process request" style="text;html=1;strokeColor=none;fillColor=none;align=center;verticalAlign=middle;whiteSpace=wrap;rounded=0;" vertex="1" parent="1">
          <mxGeometry x="770" y="560" width="90" height="30" as="geometry" />
        </mxCell>
        <mxCell id="dLwLNs0NbHW0nQvxP7zs-98" value="" style="endArrow=classic;html=1;rounded=0;" edge="1" parent="1">
          <mxGeometry width="50" height="50" relative="1" as="geometry">
            <mxPoint x="940" y="610" as="sourcePoint" />
            <mxPoint x="1160" y="610" as="targetPoint" />
            <Array as="points" />
          </mxGeometry>
        </mxCell>
        <mxCell id="dLwLNs0NbHW0nQvxP7zs-99" value="&lt;span style=&quot;color: rgb(0, 0, 0); font-family: Helvetica; font-size: 11px; font-style: normal; font-variant-ligatures: normal; font-variant-caps: normal; font-weight: 400; letter-spacing: normal; orphans: 2; text-align: center; text-indent: 0px; text-transform: none; widows: 2; word-spacing: 0px; -webkit-text-stroke-width: 0px; background-color: rgb(255, 255, 255); text-decoration-thickness: initial; text-decoration-style: initial; text-decoration-color: initial; float: none; display: inline !important;&quot;&gt;Execute query&lt;/span&gt;" style="text;whiteSpace=wrap;html=1;" vertex="1" parent="1">
          <mxGeometry x="980" y="570" width="100" height="40" as="geometry" />
        </mxCell>
        <mxCell id="dLwLNs0NbHW0nQvxP7zs-96" value="" style="edgeStyle=orthogonalEdgeStyle;rounded=0;orthogonalLoop=1;jettySize=auto;html=1;" edge="1" parent="1">
          <mxGeometry relative="1" as="geometry">
            <Array as="points">
              <mxPoint x="930" y="590" />
            </Array>
            <mxPoint x="717.3235294117649" y="590" as="sourcePoint" />
            <mxPoint x="929.9999999999995" y="590" as="targetPoint" />
          </mxGeometry>
        </mxCell>
        <mxCell id="dLwLNs0NbHW0nQvxP7zs-101" value="return result" style="verticalAlign=bottom;endArrow=open;dashed=1;endSize=8;exitX=0;exitY=0.95;shadow=0;strokeWidth=1;" edge="1" parent="1">
          <mxGeometry relative="1" as="geometry">
            <mxPoint x="938.75" y="720" as="targetPoint" />
            <mxPoint x="1161.25" y="720" as="sourcePoint" />
          </mxGeometry>
        </mxCell>
        <mxCell id="dLwLNs0NbHW0nQvxP7zs-105" value="return result" style="verticalAlign=bottom;endArrow=open;dashed=1;endSize=8;shadow=0;strokeWidth=1;" edge="1" parent="1">
          <mxGeometry relative="1" as="geometry">
            <mxPoint x="10" y="760" as="targetPoint" />
            <mxPoint x="230" y="760" as="sourcePoint" />
          </mxGeometry>
        </mxCell>
        <mxCell id="dLwLNs0NbHW0nQvxP7zs-103" value="return result" style="verticalAlign=bottom;endArrow=open;dashed=1;endSize=8;exitX=-0.435;exitY=0.968;shadow=0;strokeWidth=1;exitDx=0;exitDy=0;exitPerimeter=0;" edge="1" parent="1" source="dLwLNs0NbHW0nQvxP7zs-50" target="dLwLNs0NbHW0nQvxP7zs-46">
          <mxGeometry x="1" y="130" relative="1" as="geometry">
            <mxPoint x="480" y="670" as="targetPoint" />
            <mxPoint x="692.5" y="670" as="sourcePoint" />
            <Array as="points">
              <mxPoint x="590" y="740" />
              <mxPoint x="510" y="740" />
            </Array>
            <mxPoint x="-123" y="-81" as="offset" />
          </mxGeometry>
        </mxCell>
        <mxCell id="dLwLNs0NbHW0nQvxP7zs-107" value="return result" style="verticalAlign=bottom;endArrow=open;dashed=1;endSize=8;shadow=0;strokeWidth=1;" edge="1" parent="1">
          <mxGeometry x="-1" y="-120" relative="1" as="geometry">
            <mxPoint x="250" y="750" as="targetPoint" />
            <mxPoint x="470" y="750" as="sourcePoint" />
            <mxPoint x="120" y="110" as="offset" />
          </mxGeometry>
        </mxCell>
        <mxCell id="dLwLNs0NbHW0nQvxP7zs-102" value="return result" style="verticalAlign=bottom;endArrow=open;dashed=1;endSize=8;exitX=0;exitY=0.95;shadow=0;strokeWidth=1;" edge="1" parent="1">
          <mxGeometry relative="1" as="geometry">
            <mxPoint x="717.5" y="730" as="targetPoint" />
            <mxPoint x="930" y="730" as="sourcePoint" />
          </mxGeometry>
        </mxCell>
        <mxCell id="dLwLNs0NbHW0nQvxP7zs-108" value="Change Status" style="shape=umlFrame;whiteSpace=wrap;html=1;" vertex="1" parent="1">
          <mxGeometry x="-180" y="610" width="890" height="110" as="geometry" />
        </mxCell>
        <mxCell id="dLwLNs0NbHW0nQvxP7zs-109" value="Render failed" style="verticalAlign=bottom;endArrow=open;dashed=1;endSize=8;exitX=0;exitY=0.95;shadow=0;strokeWidth=1;" edge="1" parent="1">
          <mxGeometry relative="1" as="geometry">
            <mxPoint x="10" y="650" as="targetPoint" />
            <mxPoint x="710" y="650" as="sourcePoint" />
          </mxGeometry>
        </mxCell>
        <mxCell id="dLwLNs0NbHW0nQvxP7zs-110" value="" style="endArrow=none;dashed=1;html=1;dashPattern=1 3;strokeWidth=2;rounded=0;entryX=0;entryY=0.636;entryDx=0;entryDy=0;entryPerimeter=0;" edge="1" parent="1">
          <mxGeometry x="0.0562" y="350" width="50" height="50" relative="1" as="geometry">
            <mxPoint x="710" y="680.04" as="sourcePoint" />
            <mxPoint x="-180" y="680" as="targetPoint" />
            <Array as="points">
              <mxPoint x="700" y="680.04" />
              <mxPoint x="210" y="680.04" />
              <mxPoint x="80" y="680.04" />
            </Array>
            <mxPoint x="1" as="offset" />
          </mxGeometry>
        </mxCell>
        <mxCell id="dLwLNs0NbHW0nQvxP7zs-112" value="Render success" style="verticalAlign=bottom;endArrow=open;dashed=1;endSize=8;exitX=0;exitY=0.95;shadow=0;strokeWidth=1;" edge="1" parent="1">
          <mxGeometry relative="1" as="geometry">
            <mxPoint x="10" y="710" as="targetPoint" />
            <mxPoint x="700" y="710" as="sourcePoint" />
          </mxGeometry>
        </mxCell>
        <mxCell id="dLwLNs0NbHW0nQvxP7zs-113" value="Failed" style="text;html=1;strokeColor=none;fillColor=none;align=center;verticalAlign=middle;whiteSpace=wrap;rounded=0;" vertex="1" parent="1">
          <mxGeometry x="-170" y="640" width="60" height="30" as="geometry" />
        </mxCell>
        <mxCell id="dLwLNs0NbHW0nQvxP7zs-114" value="Success" style="text;html=1;strokeColor=none;fillColor=none;align=center;verticalAlign=middle;whiteSpace=wrap;rounded=0;" vertex="1" parent="1">
          <mxGeometry x="-170" y="680" width="60" height="30" as="geometry" />
        </mxCell>
      </root>
    </mxGraphModel>
  </diagram>
</mxfile>
